<?xml version="1.0" standalone="no"?>
<!DOCTYPE svg PUBLIC "-//W3C//DTD SVG 20010904//EN"
 "http://www.w3.org/TR/2001/REC-SVG-20010904/DTD/svg10.dtd">
<svg version="1.0" xmlns="http://www.w3.org/2000/svg"
 width="260.000000pt" height="260.000000pt" viewBox="0 0 260.000000 260.000000"
 preserveAspectRatio="xMidYMid meet">
<metadata>
Created by potrace 1.11, written by Peter Selinger 2001-2013
</metadata>
<g transform="translate(0.000000,260.000000) scale(0.100000,-0.100000)"
fill="#000000" stroke="none">
<path d="M1290 1970 l0 -40 -41 0 c-45 0 -45 -14 -1 -23 36 -7 42 -31 42 -157
0 -75 -3 -89 -20 -105 -12 -10 -30 -34 -42 -53 -20 -33 -20 -36 -5 -66 9 -17
18 -42 19 -56 3 -24 1 -25 -57 -25 -47 0 -60 -3 -60 -15 0 -14 55 -27 138 -32
l27 -1 0 -93 c0 -51 4 -96 10 -99 6 -4 10 30 10 94 l0 101 30 0 c55 0 130 21
130 36 0 12 -10 13 -48 8 -67 -9 -81 9 -52 66 25 48 21 65 -26 121 -34 41 -34
42 -34 139 0 100 12 156 30 145 5 -3 10 -1 10 4 0 6 -6 11 -14 11 -9 0 -17 15
-21 40 -4 22 -11 40 -16 40 -5 0 -9 -18 -9 -40z"/>
<path d="M934 1082 c-17 -11 -24 -52 -14 -78 9 -22 14 -24 48 -18 21 3 191 7
377 7 l340 2 0 40 0 40 -343 1 c-189 1 -356 4 -371 7 -15 3 -32 3 -37 -1z"/>
<path d="M1640 805 c0 -8 7 -15 15 -15 8 0 15 7 15 15 0 8 -7 15 -15 15 -8 0
-15 -7 -15 -15z"/>
<path d="M1265 792 c-11 -2 -33 -10 -50 -18 -31 -13 -85 -34 -165 -61 -25 -9
-52 -22 -61 -30 -8 -7 -31 -13 -50 -13 -19 0 -50 -9 -70 -19 -20 -11 -53 -23
-74 -27 -59 -11 -75 -33 -75 -106 0 -87 36 -323 55 -361 9 -19 13 -42 10 -59
-5 -21 -1 -33 19 -53 l25 -25 469 0 c454 0 470 1 495 20 17 14 27 33 30 62 3
24 17 93 31 153 29 130 38 318 15 340 -15 14 -105 48 -181 70 -25 7 -51 16
-57 20 -23 14 -267 97 -306 104 -22 4 -49 5 -60 3z m195 -92 c0 -5 -11 -10
-25 -10 -14 0 -25 5 -25 10 0 6 11 10 25 10 14 0 25 -4 25 -10z m-310 -10
c-19 -13 -30 -13 -30 0 0 6 10 10 23 10 18 0 19 -2 7 -10z m81 -6 c12 -14 11
-16 -5 -13 -11 2 -21 10 -24 17 -5 17 13 15 29 -4z m169 12 c0 -3 -4 -8 -10
-11 -5 -3 -10 -1 -10 4 0 6 5 11 10 11 6 0 10 -2 10 -4z m-106 -83 c-2 -63 -2
-63 -19 -63 -9 0 -15 9 -15 24 0 13 -3 38 -6 55 -6 28 -4 31 18 31 22 0 23 -4
22 -47z m276 38 c0 -5 -7 -14 -16 -22 -13 -10 -17 -10 -25 2 -14 23 -11 29 16
29 14 0 25 -4 25 -9z m-490 -5 c0 -3 -4 -8 -10 -11 -5 -3 -10 -1 -10 4 0 6 5
11 10 11 6 0 10 -2 10 -4z m264 -62 c-5 -19 -1 -29 15 -40 11 -8 21 -25 21
-37 -1 -19 -5 -17 -35 18 -37 42 -43 63 -23 83 17 17 29 4 22 -24z m-264 -15
c0 -18 -4 -28 -10 -24 -5 3 -10 20 -10 36 0 18 4 28 10 24 6 -3 10 -20 10 -36z
m470 17 c0 -14 -4 -28 -10 -31 -6 -4 -10 7 -10 24 0 17 5 31 10 31 6 0 10 -11
10 -24z m228 -24 c2 -7 -2 -10 -12 -6 -9 3 -16 11 -16 16 0 13 23 5 28 -10z
m-958 -2 c0 -5 -4 -10 -10 -10 -5 0 -10 5 -10 10 0 6 5 10 10 10 6 0 10 -4 10
-10z m370 -86 c0 -11 -8 -14 -27 -12 -39 4 -42 28 -4 28 21 0 31 -5 31 -16z
m278 -2 c3 -10 -5 -13 -29 -10 -18 2 -34 9 -37 16 -3 10 5 13 29 10 18 -2 34
-9 37 -16z m-80 -251 c12 -6 22 -15 22 -19 0 -4 -43 -6 -95 -4 -68 2 -112 -1
-153 -13 -76 -23 -196 -31 -190 -13 3 8 33 16 79 20 84 9 97 11 123 23 54 24
174 28 214 6z m262 -36 c25 -15 5 -25 -47 -24 -76 0 -135 11 -140 26 -3 8 21
10 87 7 50 -2 95 -6 100 -9z m-762 -27 c9 -9 15 -9 24 0 16 16 28 15 28 -1 0
-13 -96 -40 -111 -31 -13 7 13 44 31 44 9 0 21 -5 28 -12z m880 -16 c3 -9 -3
-13 -19 -10 -12 1 -24 9 -27 16 -3 9 3 13 19 10 12 -1 24 -9 27 -16z"/>
</g>
</svg>
